<!DOCTYPE svg PUBLIC "-//W3C//DTD SVG 1.1//EN" "http://www.w3.org/Graphics/SVG/1.1/DTD/svg11.dtd">
<!-- Uploaded to: SVG Repo, www.svgrepo.com, Transformed by: SVG Repo Mixer Tools -->
<svg height="800px" width="800px" version="1.1" id="_x32_" xmlns="http://www.w3.org/2000/svg" xmlns:xlink="http://www.w3.org/1999/xlink" viewBox="0 0 512 512" xml:space="preserve" fill="#ad9200" stroke="#ad9200">
<g id="SVGRepo_bgCarrier" stroke-width="0"/>
<g id="SVGRepo_tracerCarrier" stroke-linecap="round" stroke-linejoin="round"/>
<g id="SVGRepo_iconCarrier"> <style type="text/css"> .st0{fill:#ffd700;} </style> <g> <path class="st0" d="M148.53,401.579V357.32c-13.082-4.002-25.808-8.723-37.531-13.818V409.3c0,30.626,37.256,61.252,37.256,61.252 l25.542-28.079C153.35,432.294,148.53,401.579,148.53,401.579z"/> <path class="st0" d="M363.457,401.579c0,0-4.819,30.715-25.266,40.895l25.532,28.079c0,0,37.265-30.626,37.265-61.252v-65.798 c-11.724,5.183-24.538,9.816-37.531,13.907V401.579z"/> <path class="st0" d="M312.801,459.628c-11.84-24.335-33.591-33.635-56.798-22.888c-23.216-10.747-44.968-1.447-56.807,22.888 c-13.632,28.018-44.675,31.682-44.675,31.682s6.816,27.023,45.438,19.302c24.334-4.864,40.548-24.272,56.044-37.975 c15.486,13.702,31.7,33.111,56.035,37.975c38.622,7.721,45.438-19.302,45.438-19.302S326.432,487.646,312.801,459.628z"/> <path class="st0" d="M398.689,212.353c0,0,4.491,14.155-14.438,34.7c4.295-51.589,6.38-144.524,17.234-188.347 C411.406,18.672,319.811,0,255.994,0C192.185,0,100.598,18.672,110.52,58.706c10.853,43.822,12.93,136.758,17.226,188.347 c-18.922-20.545-14.44-34.7-14.44-34.7C51.22,174.138,10.609,258.927,91.634,316.684c37.185,26.526,121.796,46.813,161.688,48.588 v0.143c0.843,0,1.766-0.018,2.672-0.045c0.922,0.026,1.836,0.045,2.689,0.045v-0.143c39.882-1.775,124.494-22.062,161.688-48.588 C501.387,258.927,460.785,174.138,398.689,212.353z"/> </g> </g>
</svg>